<?xml version="1.0" standalone="no"?><!DOCTYPE svg PUBLIC "-//W3C//DTD SVG 1.1//EN" "http://www.w3.org/Graphics/SVG/1.1/DTD/svg11.dtd"><svg t="1759484249733" class="icon" viewBox="0 0 1024 1024" version="1.1" xmlns="http://www.w3.org/2000/svg" p-id="1809" width="32" height="32" xmlns:xlink="http://www.w3.org/1999/xlink"><path d="M405.376211 719.134603c-4.80232 1.525684-9.932303 2.626429-15.384831 3.276636-5.457647 0.660447-11.678136 0.982991-18.661466 0.982991-51.509745 0-89.534083-21.651397-114.083256-64.969551-24.549173-43.328394-36.826319-110.381681-36.826319-201.164982 0-91.00345 12.272026-158.113054 36.826319-201.323694 24.554292-43.210639 62.573511-64.815959 114.083256-64.815959 51.719654 0 89.907825 21.60532 114.569631 64.815959 24.661807 43.210639 36.99015 110.315124 36.990151 201.323694 0 51.719654-3.711814 94.930293-11.125204 129.631918-7.418509 34.696505-18.774101 62.317524-34.046298 82.827219l40.922114 62.844858-69.730913 49.758792-43.533184-63.187881zM322.881776 454.305605c0 70.058577 3.650377 118.342883 10.966492 144.847797 7.310994 26.525394 19.80317 39.780411 37.481646 39.780411 17.888386 0 30.498315-13.255017 37.809309-39.780411 7.305875-26.510034 10.966492-74.789221 10.966492-144.847797 0-68.957832-3.716934-117.027109-11.130324-144.19759-7.423629-27.170481-19.967002-40.753162-37.645477-40.753163-17.898625 0-30.447118 13.147503-37.645478 39.447628-7.19836 26.300125-10.80266 74.79434-10.80266 145.503125z" fill="#165dff" p-id="1810"></path><path d="M702.60807 581.321334c0 23.146363 2.068377 37.921944 6.225608 44.357462 4.141873 6.440638 12.103075 9.655837 23.888726 9.655837 1.100745 0 2.79026-0.107515 5.073666-0.322544 2.288526-0.215029 3.978041-0.327664 5.068547-0.327663v78.567591c-11.780531 1.310654-22.20945 2.288526-31.250918 2.948973-9.067067 0.650207-16.321744 0.977871-21.769151 0.977871-29.904425 0-50.583071-7.254677-62.025699-21.774271-11.463107-14.509355-17.181861-44.352342-17.181861-89.523844V405.529804h-36.667606V335.148683h36.667606V254.620229h91.986441v80.528454h40.256547v70.381121h-40.256547v175.79153h-0.015359z" fill="#165dff" p-id="1811"></path><path d="M140.60353 72.987071c-40.077356 0-72.567252 32.489896-72.567252 72.562132v754.660507l754.655387-51.197441c40.077356 0 72.567252-32.489896 72.567252-72.567251V124.184511l-754.655387-51.19744z m703.857287 688.953712a36.283626 36.283626 0 0 1-36.278506 36.278506l-653.079666 51.19744a36.278506 36.278506 0 0 1-36.278506-36.278506V160.068797a36.278506 36.278506 0 0 1 36.278506-36.283626l653.079666 51.19744a36.283626 36.283626 0 0 1 36.278506 36.283626v550.674546z" fill="#165dff" p-id="1812"></path></svg>